<?xml version="1.0" encoding="UTF-8"?> <svg xmlns="http://www.w3.org/2000/svg" viewBox="0 0 780 440"><g data-name="Layer 4"><path fill="#035e73" d="M0 0h780v440H0z"></path><path d="M648 184a52 52 0 1 1 52-52 52 52 0 0 1-52 52zm0-100a48 48 0 1 0 48 48 48 48 0 0 0-48-48z" fill="#002838"></path><circle cx="627" cy="115.7" r="4" fill="#002838"></circle><circle cx="669" cy="115.7" r="4" fill="#002838"></circle><path d="M648 163.6a32.8 32.8 0 0 0 32.8-30.9h-65.6a32.8 32.8 0 0 0 32.8 30.9zM618 142.7h60" fill="none" stroke="#002838" stroke-miterlimit="10" stroke-width="4"></path><path d="M132 184a52 52 0 1 1 52-52 52 52 0 0 1-52 52zm0-100a48 48 0 1 0 48 48 48 48 0 0 0-48-48z" fill="#002838"></path><path d="M153.8 149.3a4.7 4.7 0 0 1-4.7-4.7 4 4 0 0 1 .3-1.5 86.9 86.9 0 0 1-9.4.4 2 2 0 0 1 0-4c15.6 0 20.7-2.7 25.2-5l2.2-1.1a2 2 0 0 1 1.7 3.7l-2.1 1a35.9 35.9 0 0 1-9.4 3.7 4.7 4.7 0 0 1-3.8 7.5zm-55-14.8c4.5 2.3 9.6 5 25.2 5a2 2 0 0 1 0 4 86.9 86.9 0 0 1-9.4-.4 4 4 0 0 1 .3 1.5 4.7 4.7 0 1 1-8.5-2.8 35.9 35.9 0 0 1-9.4-3.7l-2.1-1a2 2 0 0 1 1.7-3.7z" fill="#002838" fill-rule="evenodd"></path><path d="M123.6 169.7a1.9 1.9 0 0 0 1-.3 14.2 14.2 0 0 1 7.3-1.9 14.5 14.5 0 0 1 7.3 1.9 2 2 0 0 0 2.8-.8 2 2 0 0 0-.8-2.8 18.8 18.8 0 0 0-9.3-2.5 19.4 19.4 0 0 0-9.4 2.5 2 2 0 0 0-.7 2.8 2.1 2.1 0 0 0 1.8 1.1z" fill="#002838"></path><path d="M343.4 196.9a160.8 160.8 0 0 1 93.2 0l27.8-85.6a250.6 250.6 0 0 0-148.8 0z" fill="#fff"></path><path d="M594 205.5l-72.8 52.9A159.4 159.4 0 0 1 550 350h90a248.6 248.6 0 0 0-46-144.5z" fill="#083d4f"></path><path d="M262.3 253.5a161.1 161.1 0 0 1 75.4-54.8l-27.8-85.6a250.7 250.7 0 0 0-120.4 87.5zM186 205.5A248.6 248.6 0 0 0 140 350h90a159.4 159.4 0 0 1 28.8-91.6zM470.1 113.1l-27.8 85.6a160.1 160.1 0 0 1 41.2 21.5l52.6-73.1a251.7 251.7 0 0 0-66-34z" fill="#fff"></path><path d="M536.1 147.1l-52.6 73.1a161.2 161.2 0 0 1 34.2 33.3l72.8-52.9a253.2 253.2 0 0 0-54.4-53.5z" fill="#083d4f"></path><path d="M482 185.7L372.7 340l34.6 20 78.3-172.3a2.1 2.1 0 0 0-3.6-2z" fill="#002838"></path><circle cx="390" cy="350" r="30" fill="#002838"></circle></g></svg> 